<svg width="544" height="554" viewBox="0 0 544 554" fill="none" xmlns="http://www.w3.org/2000/svg">
<path fill-rule="evenodd" clip-rule="evenodd" d="M2.17987 10.9202C0 15.1984 0 20.7989 0 32V553.974L15.7686 553.974C15.7686 548.091 22.1222 543.321 29.9599 543.321C37.7975 543.321 44.1512 548.091 44.1512 553.974H56.7656C56.7656 548.091 63.1193 543.321 70.9569 543.321C78.7946 543.321 85.1482 548.091 85.1482 553.974H97.7627C97.7627 548.091 104.116 543.321 111.954 543.321C119.792 543.321 126.145 548.091 126.145 553.974H138.76C138.76 548.091 145.113 543.321 152.951 543.321C160.789 543.321 167.142 548.091 167.142 553.974H179.756C179.756 548.091 186.11 543.321 193.948 543.321C201.785 543.321 208.139 548.091 208.139 553.974H220.753C220.753 548.091 227.107 543.321 234.945 543.321C242.782 543.321 249.136 548.091 249.136 553.974H261.751C261.751 548.091 268.105 543.321 275.942 543.321C283.78 543.321 290.134 548.091 290.134 553.974H302.748C302.748 548.091 309.102 543.321 316.939 543.321C324.777 543.321 331.131 548.091 331.131 553.974H343.745C343.745 548.091 350.099 543.321 357.936 543.321C365.774 543.321 372.128 548.091 372.128 553.974H384.742C384.742 548.091 391.096 543.321 398.934 543.321C406.771 543.321 413.125 548.091 413.125 553.974H425.739C425.739 548.091 432.093 543.321 439.931 543.321C447.768 543.321 454.122 548.091 454.122 553.974H466.736C466.736 548.091 473.09 543.321 480.928 543.321C488.765 543.321 495.119 548.091 495.119 553.974H507.733C507.733 548.091 514.087 543.321 521.925 543.321C529.762 543.321 536.116 548.091 536.116 553.974L544 553.974V32C544 20.799 544 15.1984 541.82 10.9202C539.903 7.15695 536.843 4.09734 533.08 2.17987C528.802 0 523.201 0 512 0H32C20.799 0 15.1984 0 10.9202 2.17987C7.15695 4.09734 4.09734 7.15695 2.17987 10.9202Z" fill="#232839"/>
</svg>
